<svg width="8" height="8" viewBox="0 0 8 8" fill="none" xmlns="http://www.w3.org/2000/svg">
<g clip-path="url(#clip0_89_50)">
<rect width="8" height="8" fill="white"/>
<path d="M5.93108 5.36323C5.84871 5.29164 5.42302 5.5372 5.14666 5.57261C5.05198 5.58493 4.8195 5.59186 4.8195 5.59186H4.7964C4.78024 5.59186 4.76407 5.59109 4.74945 5.58955C4.44384 5.56414 4.46462 5.19772 4.41844 5.02529L4.24754 4.18621C4.24754 4.18621 4.24446 4.12617 4.28064 4.10385L6.28288 2.92914C6.48148 2.82753 6.64699 2.78904 6.8479 2.71283C6.93335 2.6805 7.05498 2.55656 6.97261 2.32254C6.87716 2.04927 6.58002 2.06389 6.30366 2.14318C6.11198 2.19784 5.93724 2.27559 5.78713 2.35334L3.56242 3.65737L4.54391 2.16935C4.61011 2.07082 4.54237 2 4.42459 2H3.82338C3.62401 2 3.55011 2.09699 3.50161 2.17243L1.10062 5.73196C1.10062 5.73196 0.725735 6.19076 1.42317 6.19076C1.42317 6.19076 1.82577 6.22155 1.99128 5.97598L3.08361 4.36173C3.10517 4.33247 3.13596 4.30553 3.17522 4.29322C3.19061 4.28783 3.20678 4.28552 3.22372 4.28552C3.2776 4.28552 3.30608 4.31477 3.32071 4.3471C3.32071 4.3471 3.32071 4.34787 3.32071 4.34864C3.32456 4.35788 3.32764 4.36789 3.32918 4.37635L3.62863 5.67884C3.64864 5.76583 3.6956 5.9629 3.79952 6.06682C3.89575 6.16304 4.04893 6.17844 4.15132 6.18768H4.56701C4.90033 6.15304 5.01657 6.14688 5.22595 6.05142C5.33988 5.99985 5.53772 5.88823 5.60315 5.84589C5.65472 5.81279 5.83332 5.65575 5.87719 5.60571C5.95879 5.51103 6.01884 5.44098 5.92954 5.364L5.93108 5.36323Z" fill="#231F20"/>
</g>
<defs>
<clipPath id="clip0_89_50">
<rect width="8" height="8" rx="1" fill="white"/>
</clipPath>
</defs>
</svg>
