<svg width="8" height="8" viewBox="0 0 8 8" fill="none" xmlns="http://www.w3.org/2000/svg">
<g clip-path="url(#clip0_89_42)">
<rect width="8" height="8" fill="#285C79"/>
<path d="M5.52974 1.84967C5.29554 1.90404 4.71422 2.04205 4.41728 2.11733C4.28136 2.15078 4.16845 2.08387 4.10153 1.97932C4.07435 1.93958 4.05553 1.89149 4.04507 1.84549C4.03462 1.79739 4.03043 1.74721 4.0388 1.7012C4.05553 1.58828 4.12453 1.49 4.26673 1.46282C4.32528 1.45236 5.9145 1.0676 5.91868 1.06551L6.17379 1.00278H6.17588C6.17588 1.00278 6.33271 0.969323 6.33271 1.13452V4.89846C6.33271 5.01556 6.32435 5.13057 6.30971 5.2414C6.23652 5.80181 5.9835 6.24094 5.62175 6.53996C5.26208 6.83899 4.79577 7 4.29391 7C4.19145 7 4.0848 6.99373 3.97816 6.97909C3.58294 6.92681 3.22537 6.75953 2.89916 6.46677C2.57504 6.17611 2.28229 5.76626 2.01463 5.22676V5.22049C1.97281 5.11175 2.02509 5.0072 2.115 4.92983C2.15264 4.89846 2.19447 4.87128 2.24047 4.85246C2.28647 4.83155 2.33457 4.819 2.38057 4.81482C2.48094 4.80437 2.57295 4.83573 2.61895 4.92983C2.83224 5.36477 3.05808 5.69517 3.30065 5.92518C3.53903 6.15102 3.79414 6.27858 4.06598 6.31622C4.12244 6.32458 4.18099 6.32667 4.24372 6.32667C4.54693 6.32667 4.87314 6.23048 5.13662 6.03601C5.398 5.84363 5.59875 5.55506 5.64893 5.1703C5.6573 5.10757 5.66148 5.04066 5.66148 4.97165V1.84967C5.66148 1.84967 5.66148 1.84549 5.66148 1.84339C5.66148 1.83712 5.65729 1.83294 5.65102 1.82876C5.64684 1.82458 5.64057 1.82248 5.63638 1.82248C5.63638 1.82248 5.63429 1.82248 5.6322 1.82248C5.5862 1.83294 5.56738 1.83921 5.53392 1.84549L5.52974 1.84967Z" fill="white"/>
<path d="M3.25675 2.15914C3.25675 2.30342 3.1982 2.43516 3.10202 2.52926C3.00792 2.62336 2.87618 2.684 2.73189 2.684C2.58761 2.684 2.45587 2.62545 2.36177 2.52926C2.26767 2.43516 2.20703 2.30342 2.20703 2.15914C2.20703 2.01485 2.26558 1.88312 2.36177 1.78902C2.45796 1.69283 2.58761 1.63428 2.73189 1.63428C2.87618 1.63428 3.00792 1.69283 3.10202 1.78902C3.19611 1.88312 3.25675 2.01485 3.25675 2.15914Z" fill="white"/>
</g>
<defs>
<clipPath id="clip0_89_42">
<rect width="8" height="8" rx="1" fill="white"/>
</clipPath>
</defs>
</svg>
