<svg width="8" height="8" viewBox="0 0 8 8" fill="none" xmlns="http://www.w3.org/2000/svg">
<g clip-path="url(#clip0_89_56)">
<rect width="8" height="8" fill="#761227"/>
<path d="M4.75866 4.64243C4.75866 4.64243 4.76577 4.63519 4.77051 4.63278C5.23028 4.2278 5.3393 3.68059 5.35589 3.57694L5.6 2.29932H4.82028L4.5738 3.58658V3.59622C4.55721 3.68059 4.48374 3.93612 4.30836 4.08799C4.18512 4.19405 4.02396 4.24709 3.81303 4.24709H3.3106L3.93153 1H3.14944L2 7H2.78209L3.15655 5.03777H3.65899C3.86991 5.03777 4.01448 5.08839 4.09506 5.19687C4.21119 5.34873 4.18986 5.60426 4.1709 5.68863V5.70309L3.91968 7H4.69941L4.94589 5.70791C4.96722 5.60426 5.06675 5.05705 4.7634 4.65207C4.7634 4.64966 4.75866 4.64484 4.75629 4.64243" fill="white"/>
</g>
<defs>
<clipPath id="clip0_89_56">
<rect width="8" height="8" rx="1" fill="white"/>
</clipPath>
</defs>
</svg>
